<svg xmlns="http://www.w3.org/2000/svg" xmlns:xlink="http://www.w3.org/1999/xlink" width="375" height="172" viewBox="0 0 375 172"><defs><path id="a" d="M0 0h375v172H0Z"/></defs><g fill="none" fill-rule="evenodd"><mask id="b" fill="#fff"><use xlink:href="#a"/></mask><use xlink:href="#a" fill="#483eff"/><g mask="url(#b)"><g transform="translate(-151.029 -133.957)"><path fill="#6259ff" d="M79.546 349.634c54.547 128.646 292.524 204.132 354.626 99.852s-95.035-123.204-150.583-230.963C228.042 110.764 184.878 43.508 104.616 68.057 24.354 92.607 25 220.987 79.546 349.634"/><ellipse cx="129.864" cy="258.711" fill="#ffaf7e" rx="96.329" ry="96.373"/><path fill="#f9818e" d="M464.88 433.146c87.31-40.69 133.585-206.525 60.253-246.82-73.333-40.293-82.587 68.465-155.485 109.343S251.456 367.914 270.3 422.642c18.845 54.728 107.27 51.194 194.58 10.504"/><path stroke="#fff" stroke-linecap="round" stroke-linejoin="bevel" stroke-width="5" d="m367.336 243.125 15.263-15.549m48.273 23.44-17.995-15.112m-13.517 35.847-9.94 21.293"/></g></g></g></svg>